<?xml version="1.0" standalone="no"?><svg xmlns:xlink="http://www.w3.org/1999/xlink" xmlns="http://www.w3.org/2000/svg" viewBox="0 0 1000 625.0055095690194" preserveAspectRatio="xMaxYMax slice"><g transform="scale(0.8815310431156832)"><rect x="0" y="0" width="1134.4" height="709" fill="#fafafa"/><circle cx="35.45" cy="35.45" r="7.09" fill="#d9def6"/><circle cx="106.35000000000001" cy="35.45" r="7.09" fill="#fd84a1"/><circle cx="177.25" cy="35.45" r="7.09" fill="#7b91ec"/><circle cx="248.15" cy="35.45" r="7.09" fill="#c4cef4"/><circle cx="319.04999999999995" cy="35.45" r="7.09" fill="#fe567e"/><circle cx="389.95" cy="35.45" r="7.09" fill="#faecef"/><circle cx="460.84999999999997" cy="35.45" r="7.09" fill="#758ceb"/><circle cx="531.75" cy="35.45" r="7.09" fill="#c7d0f4"/><circle cx="602.65" cy="35.45" r="7.09" fill="#d9def6"/><circle cx="673.5500000000001" cy="35.45" r="7.09" fill="#fd83a0"/><circle cx="744.45" cy="35.45" r="7.09" fill="#d0d7f5"/><circle cx="815.35" cy="35.45" r="7.09" fill="#9dadf0"/><circle cx="886.25" cy="35.45" r="7.09" fill="#4f6de7"/><circle cx="957.15" cy="35.45" r="7.09" fill="#8d9fee"/><circle cx="1028.05" cy="35.45" r="7.09" fill="#b9c5f3"/><circle cx="1098.9499999999998" cy="35.45" r="7.09" fill="#4363e6"/><circle cx="35.45" cy="106.35000000000001" r="7.09" fill="#d1d8f5"/><circle cx="106.35000000000001" cy="106.35000000000001" r="7.09" fill="#c5cef4"/><circle cx="177.25" cy="106.35000000000001" r="7.09" fill="#ff4471"/><circle cx="248.15" cy="106.35000000000001" r="7.09" fill="#a4b2f0"/><circle cx="319.04999999999995" cy="106.35000000000001" r="7.09" fill="#fd84a1"/><circle cx="389.95" cy="106.35000000000001" r="7.09" fill="#ff3c6a"/><circle cx="460.84999999999997" cy="106.35000000000001" r="7.09" fill="#798fec"/><circle cx="531.75" cy="106.35000000000001" r="7.09" fill="#2146e2"/><circle cx="602.65" cy="106.35000000000001" r="7.09" fill="#4968e6"/><circle cx="673.5500000000001" cy="106.35000000000001" r="7.09" fill="#8398ed"/><circle cx="744.45" cy="106.35000000000001" r="7.09" fill="#faf7f8"/><circle cx="815.35" cy="106.35000000000001" r="7.09" fill="#fbd8e0"/><circle cx="886.25" cy="106.35000000000001" r="7.09" fill="#ff436f"/><circle cx="957.15" cy="106.35000000000001" r="7.09" fill="#9dadf0"/><circle cx="1028.05" cy="106.35000000000001" r="7.09" fill="#3456e4"/><circle cx="1098.9499999999998" cy="106.35000000000001" r="7.09" fill="#f7f8fa"/><circle cx="35.45" cy="177.25" r="7.09" fill="#a0b0f0"/><circle cx="106.35000000000001" cy="177.25" r="7.09" fill="#ff4773"/><circle cx="177.25" cy="177.25" r="7.09" fill="#d0d7f5"/><circle cx="248.15" cy="177.25" r="7.09" fill="#4967e6"/><circle cx="319.04999999999995" cy="177.25" r="7.09" fill="#fd87a3"/><circle cx="389.95" cy="177.25" r="7.09" fill="#fbd8e0"/><circle cx="460.84999999999997" cy="177.25" r="7.09" fill="#fd8ba6"/><circle cx="531.75" cy="177.25" r="7.09" fill="#edeff9"/><circle cx="602.65" cy="177.25" r="7.09" fill="#fbcad5"/><circle cx="673.5500000000001" cy="177.25" r="7.09" fill="#e6e9f8"/><circle cx="744.45" cy="177.25" r="7.09" fill="#fe668a"/><circle cx="815.35" cy="177.25" r="7.09" fill="#fd87a3"/><circle cx="886.25" cy="177.25" r="7.09" fill="#fcaec0"/><circle cx="957.15" cy="177.25" r="7.09" fill="#6b84ea"/><circle cx="1028.05" cy="177.25" r="7.09" fill="#fd84a1"/><circle cx="1098.9499999999998" cy="177.25" r="7.09" fill="#294de3"/><circle cx="35.45" cy="248.15" r="7.09" fill="#1c42e1"/><circle cx="106.35000000000001" cy="248.15" r="7.09" fill="#c3cdf4"/><circle cx="177.25" cy="248.15" r="7.09" fill="#fc99b1"/><circle cx="248.15" cy="248.15" r="7.09" fill="#fca6ba"/><circle cx="319.04999999999995" cy="248.15" r="7.09" fill="#fd8ba6"/><circle cx="389.95" cy="248.15" r="7.09" fill="#294de3"/><circle cx="460.84999999999997" cy="248.15" r="7.09" fill="#2045e2"/><circle cx="531.75" cy="248.15" r="7.09" fill="#7a90ec"/><circle cx="602.65" cy="248.15" r="7.09" fill="#fd7192"/><circle cx="673.5500000000001" cy="248.15" r="7.09" fill="#fbe4e9"/><circle cx="744.45" cy="248.15" r="7.09" fill="#2247e2"/><circle cx="815.35" cy="248.15" r="7.09" fill="#fcbbcb"/><circle cx="886.25" cy="248.15" r="7.09" fill="#ff3b69"/><circle cx="957.15" cy="248.15" r="7.09" fill="#fe5a81"/><circle cx="1028.05" cy="248.15" r="7.09" fill="#7990ec"/><circle cx="1098.9499999999998" cy="248.15" r="7.09" fill="#cad2f5"/><circle cx="35.45" cy="319.04999999999995" r="7.09" fill="#fe5e84"/><circle cx="106.35000000000001" cy="319.04999999999995" r="7.09" fill="#5f7ae9"/><circle cx="177.25" cy="319.04999999999995" r="7.09" fill="#fbe1e7"/><circle cx="248.15" cy="319.04999999999995" r="7.09" fill="#4a69e7"/><circle cx="319.04999999999995" cy="319.04999999999995" r="7.09" fill="#eff1f9"/><circle cx="389.95" cy="319.04999999999995" r="7.09" fill="#fca7bb"/><circle cx="460.84999999999997" cy="319.04999999999995" r="7.09" fill="#fca3b8"/><circle cx="531.75" cy="319.04999999999995" r="7.09" fill="#ff3867"/><circle cx="602.65" cy="319.04999999999995" r="7.09" fill="#bdc7f3"/><circle cx="673.5500000000001" cy="319.04999999999995" r="7.09" fill="#ff3c6a"/><circle cx="744.45" cy="319.04999999999995" r="7.09" fill="#4e6ce7"/><circle cx="815.35" cy="319.04999999999995" r="7.09" fill="#faf5f6"/><circle cx="886.25" cy="319.04999999999995" r="7.09" fill="#627ce9"/><circle cx="957.15" cy="319.04999999999995" r="7.09" fill="#fc9fb5"/><circle cx="1028.05" cy="319.04999999999995" r="7.09" fill="#fca0b6"/><circle cx="1098.9499999999998" cy="319.04999999999995" r="7.09" fill="#fcafc1"/><circle cx="35.45" cy="389.95" r="7.09" fill="#fca7bc"/><circle cx="106.35000000000001" cy="389.95" r="7.09" fill="#6780ea"/><circle cx="177.25" cy="389.95" r="7.09" fill="#fbe5ea"/><circle cx="248.15" cy="389.95" r="7.09" fill="#fbcad6"/><circle cx="319.04999999999995" cy="389.95" r="7.09" fill="#fe6d90"/><circle cx="389.95" cy="389.95" r="7.09" fill="#fd7d9b"/><circle cx="460.84999999999997" cy="389.95" r="7.09" fill="#fd7a99"/><circle cx="531.75" cy="389.95" r="7.09" fill="#fae8ec"/><circle cx="602.65" cy="389.95" r="7.09" fill="#fe4d77"/><circle cx="673.5500000000001" cy="389.95" r="7.09" fill="#fbc6d3"/><circle cx="744.45" cy="389.95" r="7.09" fill="#8498ed"/><circle cx="815.35" cy="389.95" r="7.09" fill="#e7eaf8"/><circle cx="886.25" cy="389.95" r="7.09" fill="#fbd1db"/><circle cx="957.15" cy="389.95" r="7.09" fill="#5470e8"/><circle cx="1028.05" cy="389.95" r="7.09" fill="#6982ea"/><circle cx="1098.9499999999998" cy="389.95" r="7.09" fill="#5773e8"/><circle cx="35.45" cy="460.84999999999997" r="7.09" fill="#fbd9e1"/><circle cx="106.35000000000001" cy="460.84999999999997" r="7.09" fill="#8fa1ee"/><circle cx="177.25" cy="460.84999999999997" r="7.09" fill="#6780ea"/><circle cx="248.15" cy="460.84999999999997" r="7.09" fill="#4060e5"/><circle cx="319.04999999999995" cy="460.84999999999997" r="7.09" fill="#c9d1f5"/><circle cx="389.95" cy="460.84999999999997" r="7.09" fill="#fca2b7"/><circle cx="460.84999999999997" cy="460.84999999999997" r="7.09" fill="#274ce3"/><circle cx="531.75" cy="460.84999999999997" r="7.09" fill="#395ae5"/><circle cx="602.65" cy="460.84999999999997" r="7.09" fill="#6781ea"/><circle cx="673.5500000000001" cy="460.84999999999997" r="7.09" fill="#5571e8"/><circle cx="744.45" cy="460.84999999999997" r="7.09" fill="#fe5b82"/><circle cx="815.35" cy="460.84999999999997" r="7.09" fill="#728aeb"/><circle cx="886.25" cy="460.84999999999997" r="7.09" fill="#ff426f"/><circle cx="957.15" cy="460.84999999999997" r="7.09" fill="#3a5be5"/><circle cx="1028.05" cy="460.84999999999997" r="7.09" fill="#b2bef2"/><circle cx="1098.9499999999998" cy="460.84999999999997" r="7.09" fill="#fcbbca"/><circle cx="35.45" cy="531.75" r="7.09" fill="#fca2b8"/><circle cx="106.35000000000001" cy="531.75" r="7.09" fill="#fbc7d3"/><circle cx="177.25" cy="531.75" r="7.09" fill="#ff3d6b"/><circle cx="248.15" cy="531.75" r="7.09" fill="#fbd6df"/><circle cx="319.04999999999995" cy="531.75" r="7.09" fill="#fcb9c9"/><circle cx="389.95" cy="531.75" r="7.09" fill="#fd7f9d"/><circle cx="460.84999999999997" cy="531.75" r="7.09" fill="#eaedf8"/><circle cx="531.75" cy="531.75" r="7.09" fill="#ff3e6c"/><circle cx="602.65" cy="531.75" r="7.09" fill="#748beb"/><circle cx="673.5500000000001" cy="531.75" r="7.09" fill="#a3b2f0"/><circle cx="744.45" cy="531.75" r="7.09" fill="#c6cff4"/><circle cx="815.35" cy="531.75" r="7.09" fill="#faf0f2"/><circle cx="886.25" cy="531.75" r="7.09" fill="#788eec"/><circle cx="957.15" cy="531.75" r="7.09" fill="#fd97af"/><circle cx="1028.05" cy="531.75" r="7.09" fill="#f4f5f9"/><circle cx="1098.9499999999998" cy="531.75" r="7.09" fill="#fcbccb"/><circle cx="35.45" cy="602.65" r="7.09" fill="#738aeb"/><circle cx="106.35000000000001" cy="602.65" r="7.09" fill="#fcbdcc"/><circle cx="177.25" cy="602.65" r="7.09" fill="#fd7495"/><circle cx="248.15" cy="602.65" r="7.09" fill="#fcbdcc"/><circle cx="319.04999999999995" cy="602.65" r="7.09" fill="#fe698c"/><circle cx="389.95" cy="602.65" r="7.09" fill="#fbd3dc"/><circle cx="460.84999999999997" cy="602.65" r="7.09" fill="#9cadf0"/><circle cx="531.75" cy="602.65" r="7.09" fill="#fd96ae"/><circle cx="602.65" cy="602.65" r="7.09" fill="#768deb"/><circle cx="673.5500000000001" cy="602.65" r="7.09" fill="#8397ed"/><circle cx="744.45" cy="602.65" r="7.09" fill="#fca6bb"/><circle cx="815.35" cy="602.65" r="7.09" fill="#6c84ea"/><circle cx="886.25" cy="602.65" r="7.09" fill="#fe4a75"/><circle cx="957.15" cy="602.65" r="7.09" fill="#9eaef0"/><circle cx="1028.05" cy="602.65" r="7.09" fill="#f1f3f9"/><circle cx="1098.9499999999998" cy="602.65" r="7.09" fill="#526fe7"/><circle cx="35.45" cy="673.5500000000001" r="7.09" fill="#f1f3f9"/><circle cx="106.35000000000001" cy="673.5500000000001" r="7.09" fill="#fe5e84"/><circle cx="177.25" cy="673.5500000000001" r="7.09" fill="#617be9"/><circle cx="248.15" cy="673.5500000000001" r="7.09" fill="#fbd1db"/><circle cx="319.04999999999995" cy="673.5500000000001" r="7.09" fill="#fca7bb"/><circle cx="389.95" cy="673.5500000000001" r="7.09" fill="#fae7ec"/><circle cx="460.84999999999997" cy="673.5500000000001" r="7.09" fill="#aab8f1"/><circle cx="531.75" cy="673.5500000000001" r="7.09" fill="#90a3ee"/><circle cx="602.65" cy="673.5500000000001" r="7.09" fill="#fd7e9c"/><circle cx="673.5500000000001" cy="673.5500000000001" r="7.09" fill="#c2ccf4"/><circle cx="744.45" cy="673.5500000000001" r="7.09" fill="#fca7bb"/><circle cx="815.35" cy="673.5500000000001" r="7.09" fill="#fbd3dc"/><circle cx="886.25" cy="673.5500000000001" r="7.09" fill="#728aeb"/><circle cx="957.15" cy="673.5500000000001" r="7.09" fill="#fbc8d4"/><circle cx="1028.05" cy="673.5500000000001" r="7.09" fill="#fe6589"/><circle cx="1098.9499999999998" cy="673.5500000000001" r="7.09" fill="#4b69e7"/></g></svg>